<?xml version="1.0" encoding="UTF-8" standalone="no"?>
<!-- Created with Inkscape (http://www.inkscape.org/) -->

<svg
   width="600"
   height="600"
   viewBox="0 0 158.74999 158.75"
   version="1.1"
   id="svg1"
   xml:space="preserve"
   inkscape:version="1.4.4 (dcaf3e7d9e, 2026-05-05)"
   sodipodi:docname="logo-no-text.svg"
   xmlns:inkscape="http://www.inkscape.org/namespaces/inkscape"
   xmlns:sodipodi="http://sodipodi.sourceforge.net/DTD/sodipodi-0.dtd"
   xmlns="http://www.w3.org/2000/svg"
   xmlns:svg="http://www.w3.org/2000/svg"><sodipodi:namedview
     id="namedview1"
     pagecolor="#505050"
     bordercolor="#eeeeee"
     borderopacity="1"
     inkscape:showpageshadow="0"
     inkscape:pageopacity="0"
     inkscape:pagecheckerboard="0"
     inkscape:deskcolor="#505050"
     inkscape:document-units="px"
     inkscape:zoom="0.54677766"
     inkscape:cx="134.42393"
     inkscape:cy="190.20528"
     inkscape:window-width="1860"
     inkscape:window-height="1052"
     inkscape:window-x="0"
     inkscape:window-y="0"
     inkscape:window-maximized="1"
     inkscape:current-layer="layer1" /><defs
     id="defs1" /><g
     inkscape:label="Layer 1"
     inkscape:groupmode="layer"
     id="layer1"><path
       id="path11"
       style="fill:none;fill-opacity:1;stroke:#b3b3b3;stroke-width:2.64583325;stroke-linecap:square;stroke-linejoin:round;stroke-dasharray:none;stroke-opacity:1"
       d="M 57.354287 38.644532 A 46.302082 46.302082 0 0 1 79.375 33.072918 A 46.302082 46.302082 0 0 1 101.58715 38.748616 " /><path
       id="path20"
       style="fill:none;fill-opacity:1;stroke:#f16d0f;stroke-width:2.64583325;stroke-linecap:square;stroke-linejoin:round;stroke-dasharray:none;stroke-opacity:1"
       d="M 38.748617 101.58715 A 46.302082 46.302082 0 0 1 33.072918 79.375 A 46.302082 46.302082 0 0 1 38.822715 57.027852 " /><path
       id="path18"
       style="fill:none;fill-opacity:1;stroke:#f16d0f;stroke-width:2.64583325;stroke-linecap:square;stroke-linejoin:round;stroke-dasharray:none;stroke-opacity:1"
       d="M 101.58716 120.00138 A 46.302082 46.302082 0 0 1 79.375 125.67708 A 46.302082 46.302082 0 0 1 57.162838 120.00138 " /><path
       id="path16"
       style="fill:none;fill-opacity:1;stroke:#b3b3b3;stroke-width:2.64583325;stroke-linecap:square;stroke-linejoin:round;stroke-dasharray:none;stroke-opacity:1"
       d="M 120.00138 57.162835 A 46.302082 46.302082 0 0 1 125.67708 79.375 L 125.67708 79.375 A 46.302082 46.302082 0 0 1 120.00138 101.58716 " /><path
       id="path1"
       style="fill:none;fill-opacity:1;stroke:#b3b3b3;stroke-width:2.64583325;stroke-linecap:square;stroke-linejoin:round;stroke-dasharray:none"
       d="M 14.552089 66.212146 A 66.145828 66.145828 0 0 1 66.213723 14.551768 " /><path
       id="path14"
       style="fill:none;fill-opacity:1;stroke:#b3b3b3;stroke-width:2.64583325;stroke-linecap:square;stroke-linejoin:round;stroke-dasharray:none"
       d="M 66.213669 144.19822 A 66.145828 66.145828 0 0 1 14.552089 92.537853 " /><path
       id="path13"
       style="fill:none;fill-opacity:1;stroke:#f16d0f;stroke-width:2.64583325;stroke-linecap:square;stroke-linejoin:round;stroke-opacity:1;stroke-dasharray:none"
       d="M 144.19791 92.53786 A 66.145828 66.145828 0 0 1 92.537795 144.19793 " /><path
       id="path12"
       style="fill:none;fill-opacity:1;stroke:#f16d0f;stroke-width:2.64583325;stroke-linecap:square;stroke-linejoin:round;stroke-opacity:1;stroke-dasharray:none"
       d="M 92.53628 14.551769 A 66.145828 66.145828 0 0 1 144.19791 66.212134 " /><circle
       style="fill:none;fill-opacity:1;stroke:#b3b3b3;stroke-width:2.64583325;stroke-linecap:round;stroke-linejoin:round;stroke-dasharray:none"
       id="path2-3"
       cx="145.52083"
       cy="79.375"
       r="6.614583" /><circle
       style="fill:none;fill-opacity:1;stroke:#f47717;stroke-width:2.64583325;stroke-linecap:round;stroke-linejoin:round;stroke-opacity:1;stroke-dasharray:none"
       id="path2-3-1"
       cx="13.229166"
       cy="79.375"
       r="6.614583" /><circle
       style="fill:none;fill-opacity:1;stroke:#b3b3b3;stroke-width:2.64583325;stroke-linecap:round;stroke-linejoin:round;stroke-dasharray:none"
       id="path2-3-3"
       cx="79.375"
       cy="145.52083"
       r="6.614583" /><circle
       style="fill:none;fill-opacity:1;stroke:#f47717;stroke-width:2.64583325;stroke-linecap:round;stroke-linejoin:round;stroke-opacity:1;stroke-dasharray:none"
       id="path2"
       cx="79.375"
       cy="13.229166"
       r="6.614583" /><circle
       style="fill:none;fill-opacity:1;stroke:#f47717;stroke-width:2.64583325;stroke-linecap:round;stroke-linejoin:round;stroke-opacity:1;stroke-dasharray:none"
       id="path2-5"
       cx="112.44791"
       cy="46.302086"
       r="6.614583" /><circle
       style="fill:none;fill-opacity:1;stroke:#f47717;stroke-width:2.64583325;stroke-linecap:round;stroke-linejoin:round;stroke-opacity:1;stroke-dasharray:none"
       id="path2-2"
       cx="46.566666"
       cy="46.302086"
       r="6.614583" /><circle
       style="fill:none;fill-opacity:1;stroke:#b3b3b3;stroke-width:2.64583325;stroke-linecap:round;stroke-linejoin:round;stroke-dasharray:none"
       id="path2-0"
       cx="46.302086"
       cy="112.44791"
       r="6.614583" /><circle
       style="fill:none;fill-opacity:1;stroke:#b3b3b3;stroke-width:2.64583325;stroke-linecap:round;stroke-linejoin:round;stroke-dasharray:none"
       id="path2-31"
       cx="112.44791"
       cy="112.44791"
       r="6.614583" /><path
       id="path25"
       style="vector-effect:non-scaling-stroke;fill:#b3b3b3;fill-opacity:1;stroke:none;stroke-width:0.111283;stroke-linecap:butt;stroke-linejoin:round;stroke-dasharray:none;stroke-opacity:1;-inkscape-stroke:hairline"
       d="m 79.374997,51.594427 c -6.47362,0 -12.43461,2.22148 -17.16123,5.94279 l -2.05517,-2.05465 -0.0041,-0.004 a 3.3072915,3.3072915 0 0 0 -0.0046,-0.004 3.3072915,3.3072915 0 0 0 0,-5.1e-4 3.3072915,3.3072915 0 0 0 -2.33784,-0.96894 h -5.2e-4 a 3.3072915,3.3072915 0 0 0 -2.33836,0.96842 3.3072915,3.3072915 0 0 0 0,4.67724 3.3072915,3.3072915 0 0 1 5.2e-4,0 l 2.06292,2.06343 c -3.7213,4.72662 -5.94279,10.68761 -5.94279,17.16123 0,6.47394 2.22168,12.43502 5.94331,17.16174 l -2.06344,2.06344 a 3.3072915,3.3072915 0 0 1 0,5.2e-4 3.3072915,3.3072915 0 0 0 0,4.677233 3.3072915,3.3072915 0 0 0 4.67672,0 3.3072915,3.3072915 0 0 0 0,-5.1e-4 l 0.0062,-0.006 a 3.3072915,3.3072915 0 0 0 0.0036,-0.004 l 2.05414,-2.05362 c 4.7265,3.72097 10.68741,5.94227 17.16071,5.94227 6.47362,0 12.43462,-2.22148 17.16123,-5.94279 l 2.0562,2.05569 a 3.3072915,3.3072915 0 0 0 0.0041,0.004 l 0.0047,0.004 a 3.3072915,3.3072915 0 0 0 0,5.1e-4 3.3072915,3.3072915 0 0 0 4.677233,0 3.3072915,3.3072915 0 0 0 0,-4.677233 v -5.2e-4 l -2.06499,-2.06395 c 3.72124,-4.726589 5.94279,-10.68767 5.94279,-17.161229 0,-6.47328 -2.22132,-12.43422 -5.94227,-17.16071 l 2.05569,-2.055691 a 3.3072915,3.3072915 0 0 0 0.008,-0.008 3.3072915,3.3072915 0 0 0 5.1e-4,-5.1e-4 3.3072915,3.3072915 0 0 0 0,-4.67672 3.3072915,3.3072915 0 0 0 -2.33887,-0.968939 3.3072915,3.3072915 0 0 0 -2.338363,0.968939 l -2.06396,2.063441 c -4.72672,-3.721651 -10.68779,-5.94331 -17.16174,-5.94331 z m 0,2.64635 c 6.47179,0 12.36685,2.43699 16.81913,6.44457 l -2.82205,2.82257 c -3.73334,-3.29626 -8.63524,-5.29839 -13.99708,-5.29839 -5.36192,0 -10.26365,2.00203 -13.99656,5.29839 l -2.82257,-2.82257 c 4.45187,-4.00779 10.34714,-6.44457 16.81913,-6.44457 z m -21.56302,1.5875 a 1.9843749,1.9843749 0 0 1 1.40301,0.58136 1.9843749,1.9843749 0 0 1 0,2.80603 1.9843749,1.9843749 0 0 1 -2.80603,0 1.9843749,1.9843749 0 0 1 0,-2.80603 1.9843749,1.9843749 0 0 1 1.40302,-0.58136 z m 43.127083,0 a 1.9843749,1.9843749 0 0 1 1.40301,0.58136 1.9843749,1.9843749 0 0 1 0,2.80603 1.9843749,1.9843749 0 0 1 -2.806033,0 1.9843749,1.9843749 0 0 1 0,-2.80603 1.9843749,1.9843749 0 0 1 1.403023,-0.58136 z m -21.564063,5.0276 c 4.64496,0 8.88523,1.70135 12.13311,4.516 l -2.8267,2.82722 c -2.52494,-2.10571 -5.77088,-3.37447 -9.30641,-3.37447 -3.53529,0 -6.78093,1.26901 -9.30537,3.37447 l -2.82722,-2.82722 c 3.24745,-2.81467 7.48761,-4.516 12.13259,-4.516 z m 18.69033,1.70016 c 4.008503,4.45193 6.446123,10.34741 6.446123,16.81964 0,6.47203 -2.43731,12.36731 -6.445603,16.81965 l -2.82257,-2.82257 c 3.29686,-3.73337 5.299423,-8.6351 5.299423,-13.99708 0,-5.36207 -2.002463,-10.26361 -5.299423,-13.99656 z m -37.38066,5.1e-4 2.82257,2.82257 c -3.29636,3.73291 -5.29839,8.63464 -5.29839,13.99656 0,5.34843 1.99202,10.23883 5.27358,13.96866 l -2.82308,2.82256 c -3.99273,-4.449 -6.41925,-10.33287 -6.41925,-16.79122 0,-6.47199 2.43678,-12.36726 6.44457,-16.81913 z m 4.68653,4.68654 2.82722,2.82722 c -2.10546,2.52444 -3.37447,5.77008 -3.37447,9.30537 0,3.52211 1.25932,6.75666 3.3507,9.27747 l -2.82773,2.82722 c -2.80006,-3.2442 -4.49172,-7.4732 -4.49172,-12.10469 0,-4.64498 1.70133,-8.88514 4.516,-12.13259 z m 28.00811,0 c 2.8152,3.24747 4.51704,7.48753 4.51704,12.13259 0,4.6449 -1.70201,8.88524 -4.51704,12.13311 l -2.8267,-2.8267 c 2.10613,-2.52494 3.37499,-5.77089 3.37499,-9.30641 0,-3.53543 -1.26896,-6.7814 -3.37499,-9.30589 z m -14.00431,0.22634 c 2.8178,0 5.40206,0.97113 7.43779,2.59829 l -2.84324,2.84376 c -1.29862,-0.92702 -2.88536,-1.4733 -4.59455,-1.4733 -1.70872,0 -3.29509,0.54623 -4.59352,1.47278 l -2.84375,-2.84375 c 2.03561,-1.62679 4.61984,-2.59778 7.43727,-2.59778 z m -9.30847,4.46898 2.84375,2.84375 c -0.92655,1.29843 -1.47278,2.8848 -1.47278,4.59352 0,1.69568 0.53788,3.27067 1.45159,4.56355 l -2.8453,2.84478 c -1.61293,-2.03114 -2.57504,-4.6042 -2.57504,-7.40833 0,-2.81743 0.97099,-5.40166 2.59778,-7.43727 z m 18.61746,5.2e-4 c 1.6264,2.03549 2.59726,4.61968 2.59726,7.43675 0,2.81743 -0.97099,5.40166 -2.59777,7.43727 l -2.84376,-2.84375 c 0.92655,-1.29843 1.47278,-2.8848 1.47278,-4.59352 0,-1.70825 -0.54617,-3.29425 -1.47226,-4.59248 z m -9.30899,2.1456 c 2.93817,0 5.2927,2.35297 5.2927,5.29115 0,2.93817 -2.35453,5.2927 -5.2927,5.2927 -2.93818,0 -5.29115,-2.35453 -5.29115,-5.2927 0,-2.93818 2.35297,-5.29115 5.29115,-5.29115 z m -4.62452,11.73365 c 1.30409,0.93992 2.9023,1.495 4.62452,1.495 1.70872,0 3.29509,-0.54623 4.59352,-1.47278 l 2.84375,2.84376 c -2.03561,1.62678 -4.61984,2.59777 -7.43727,2.59777 -2.83096,0 -5.42664,-0.98063 -7.46673,-2.62154 z m -4.71083,4.71082 c 2.52871,2.12087 5.78606,3.39928 9.33535,3.39928 3.53552,0 6.78147,-1.26886 9.30641,-3.37499 l 2.8267,2.8267 c -3.24787,2.81503 -7.48821,4.51704 -12.13311,4.51704 -4.65873,0 -8.91036,-1.71179 -12.16153,-4.54184 z m -4.68963,4.68964 c 3.73645,3.31183 8.64937,5.324743 14.02498,5.324743 5.36198,0 10.26371,-2.002563 13.99708,-5.299423 l 2.82257,2.82257 c -4.45234,4.008293 -10.34762,6.445603 -16.81965,6.445603 -6.48571,0 -12.39238,-2.44752 -16.84755,-6.470923 z m -7.53804,3.73672 a 1.9843749,1.9843749 0 0 1 1.40301,0.58136 1.9843749,1.9843749 0 0 1 0,2.806033 1.9843749,1.9843749 0 0 1 -2.80603,0 1.9843749,1.9843749 0 0 1 0,-2.806033 1.9843749,1.9843749 0 0 1 1.40302,-0.58136 z m 43.127083,0 a 1.9843749,1.9843749 0 0 1 1.40301,0.58136 1.9843749,1.9843749 0 0 1 0,2.806033 1.9843749,1.9843749 0 0 1 -2.806033,0 1.9843749,1.9843749 0 0 1 0,-2.806033 1.9843749,1.9843749 0 0 1 1.403023,-0.58136 z" /></g></svg>
